<svg width="37" height="14" viewBox="0 0 37 14" fill="none" xmlns="http://www.w3.org/2000/svg">
<path d="M5.85547 13.3164C8.78223 13.3164 10.9268 11.585 11.2256 9.01855H8.99316C8.68555 10.4424 7.46387 11.3477 5.85547 11.3477C3.69336 11.3477 2.34863 9.5459 2.34863 6.6543C2.34863 3.77148 3.69336 1.96973 5.84668 1.96973C7.44629 1.96973 8.66797 2.96289 8.98438 4.49219H11.2168C10.9531 1.86426 8.72949 0.000976562 5.84668 0.000976562C2.25195 0.000976562 0.0283203 2.54102 0.0283203 6.66309C0.0283203 10.7676 2.26074 13.3164 5.85547 13.3164ZM16.165 13.1582C17.4219 13.1582 18.4766 12.6133 19.0127 11.6816H19.1621V13H21.2627V6.43457C21.2627 4.4043 19.874 3.20898 17.4043 3.20898C15.1191 3.20898 13.5283 4.28125 13.3525 5.95996H15.4092C15.6113 5.30078 16.2969 4.94043 17.2988 4.94043C18.4766 4.94043 19.1094 5.47656 19.1094 6.43457V7.26074L16.6309 7.41016C14.293 7.54199 12.9834 8.55273 12.9834 10.2754C12.9834 12.0332 14.3105 13.1582 16.165 13.1582ZM16.8066 11.4795C15.8398 11.4795 15.1455 10.9961 15.1455 10.1699C15.1455 9.37012 15.7168 8.92188 16.9385 8.84277L19.1094 8.69336V9.47559C19.1094 10.6182 18.125 11.4795 16.8066 11.4795ZM23.8906 13H26.0703V7.41895C26.0703 6.06543 27.0547 5.18652 28.4697 5.18652C28.8389 5.18652 29.4189 5.24805 29.5859 5.30957V3.32324C29.3838 3.27051 28.9971 3.23535 28.6807 3.23535C27.4414 3.23535 26.4043 3.93848 26.1406 4.8877H25.9912V3.39355H23.8906V13ZM32.5127 1.03809V3.45508H30.9922V5.15137H32.5127V10.4512C32.5127 12.3057 33.3916 13.0439 35.5977 13.0439C36.0195 13.0439 36.4238 13.0088 36.7402 12.9473V11.2773C36.4766 11.3037 36.3096 11.3213 36.002 11.3213C35.0879 11.3213 34.6836 10.8906 34.6836 9.93262V5.15137H36.7402V3.45508H34.6836V1.03809H32.5127Z" fill="black"/>
</svg>
