<svg width="184" height="74" viewBox="0 0 184 74" fill="none" xmlns="http://www.w3.org/2000/svg">
<path d="M4.49902 26H11.1396C18.3281 26 22.5615 21.5342 22.5615 13.9307C22.5615 6.32715 18.3281 2.04395 11.1396 2.04395H4.49902C2.92188 2.04395 1.99219 3.00684 1.99219 4.65039V23.377C1.99219 25.0371 2.92188 26 4.49902 26ZM7.00586 21.8496V6.17773H10.542C14.958 6.17773 17.4482 8.93359 17.4482 13.9473C17.4482 19.127 15.0244 21.8496 10.542 21.8496H7.00586ZM33.5684 26.3818C37.0049 26.3818 39.7607 25.0869 40.9395 22.8955C41.1553 22.4971 41.2715 22.0986 41.2715 21.7168C41.2715 20.6045 40.4248 19.9404 39.3789 19.9404C38.748 19.9404 38.3164 20.123 37.8018 20.6543C36.4902 22.1982 35.3281 22.7959 33.5518 22.7959C31.0947 22.7959 29.501 21.0693 29.501 18.4297V18.2139H39.6611C41.0059 18.2139 41.7695 17.4502 41.7695 16.1055C41.7695 11.2744 38.3828 7.82129 33.3359 7.82129C28.0732 7.82129 24.7363 11.457 24.7363 17.1846C24.7363 22.9453 28.0068 26.3818 33.5684 26.3818ZM29.5508 15.2422C29.7168 12.9678 31.2607 11.4072 33.3857 11.4072C35.5107 11.4072 37.0049 12.918 37.1045 15.2422H29.5508ZM46.8164 26.3486C48.2441 26.3486 49.2402 25.4854 49.2402 23.8252V4.21875C49.2402 2.55859 48.2441 1.67871 46.8164 1.67871C45.4053 1.67871 44.3926 2.55859 44.3926 4.21875V23.8252C44.3926 25.4854 45.4053 26.3486 46.8164 26.3486ZM55.0176 5.99512C56.4785 5.99512 57.6074 4.88281 57.6074 3.48828C57.6074 2.07715 56.4785 0.981445 55.0176 0.981445C53.5566 0.981445 52.4277 2.07715 52.4277 3.48828C52.4277 4.88281 53.5566 5.99512 55.0176 5.99512ZM55.0176 26.3486C56.5117 26.3486 57.4414 25.4023 57.4414 23.8252V10.3779C57.4414 8.80078 56.5117 7.83789 55.0176 7.83789C53.5068 7.83789 52.5938 8.80078 52.5938 10.3779V23.8252C52.5938 25.4023 53.5068 26.3486 55.0176 26.3486ZM68.7969 26.3818C72.2002 26.3818 75.2383 24.6885 76.3008 22.2646C76.5166 21.7832 76.6162 21.3848 76.6162 21.0029C76.6162 19.8076 75.7031 19.0605 74.5742 19.0605C73.5449 19.0605 73.0137 19.4756 72.3662 20.4883C71.6191 21.75 70.5732 22.5801 68.8799 22.5801C66.4561 22.5801 64.9453 20.5879 64.9453 17.085C64.9453 13.6484 66.4561 11.623 68.9131 11.623C70.457 11.623 71.5361 12.3369 72.416 13.8975C72.9141 14.7773 73.4951 15.1592 74.458 15.1592C75.6035 15.1592 76.5332 14.4619 76.5332 13.2666C76.5332 12.918 76.4336 12.4863 76.2676 12.0713C75.3047 9.54785 72.333 7.82129 68.7637 7.82129C63.418 7.82129 60.0312 11.4072 60.0312 17.1016C60.0312 22.8623 63.4346 26.3818 68.7969 26.3818ZM81.7129 5.99512C83.1738 5.99512 84.3027 4.88281 84.3027 3.48828C84.3027 2.07715 83.1738 0.981445 81.7129 0.981445C80.252 0.981445 79.123 2.07715 79.123 3.48828C79.123 4.88281 80.252 5.99512 81.7129 5.99512ZM81.7129 26.3486C83.207 26.3486 84.1367 25.4023 84.1367 23.8252V10.3779C84.1367 8.80078 83.207 7.83789 81.7129 7.83789C80.2021 7.83789 79.2891 8.80078 79.2891 10.3779V23.8252C79.2891 25.4023 80.2021 26.3486 81.7129 26.3486ZM95.542 26.3818C100.921 26.3818 104.357 22.9453 104.357 17.085C104.357 11.3076 100.871 7.82129 95.542 7.82129C90.2129 7.82129 86.7266 11.3242 86.7266 17.085C86.7266 22.9287 90.1631 26.3818 95.542 26.3818ZM95.542 22.6797C93.1514 22.6797 91.6406 20.6709 91.6406 17.1016C91.6406 13.5654 93.1846 11.5234 95.542 11.5234C97.8994 11.5234 99.4268 13.5654 99.4268 17.1016C99.4268 20.6709 97.916 22.6797 95.542 22.6797ZM113.189 26.332C115.879 26.332 117.639 25.0371 118.519 22.7959H118.618V23.8916C118.618 25.502 119.564 26.3486 120.959 26.3486C122.354 26.3486 123.3 25.502 123.3 23.8916V10.3779C123.3 8.71777 122.304 7.83789 120.876 7.83789C119.465 7.83789 118.452 8.71777 118.452 10.3779V18.3965C118.452 20.7539 117.107 22.2979 114.949 22.2979C112.808 22.2979 111.629 21.0361 111.629 18.6621V10.3779C111.629 8.71777 110.633 7.83789 109.205 7.83789C107.794 7.83789 106.781 8.71777 106.781 10.3779V19.6748C106.781 23.8252 109.338 26.332 113.189 26.332ZM133.709 26.3818C138.407 26.3818 141.578 24.0908 141.578 20.5547C141.578 17.8984 140.018 16.5039 136.232 15.707L133.294 15.0762C131.518 14.6943 130.82 14.0801 130.82 13.1504C130.82 12.0049 131.966 11.2246 133.609 11.2246C135.353 11.2246 136.315 12.0547 137.162 13.1338C137.594 13.6484 138.291 13.8809 138.922 13.8809C140.167 13.8809 140.781 13.2002 140.781 12.2207C140.781 11.9883 140.731 11.7559 140.665 11.5068C140.084 9.49805 137.378 7.82129 133.692 7.82129C129.077 7.82129 126.139 10.0127 126.139 13.416C126.139 16.0557 127.898 17.832 131.385 18.5791L134.373 19.21C136.116 19.5918 136.73 20.1064 136.73 21.0693C136.73 22.248 135.585 22.9785 133.825 22.9785C131.982 22.9785 130.887 22.4141 129.94 21.1689C129.276 20.4219 128.612 20.0732 127.832 20.0732C126.703 20.0732 125.873 20.8203 125.873 21.9326C125.873 22.1982 125.939 22.5137 126.056 22.8291C126.902 24.9209 129.625 26.3818 133.709 26.3818ZM5.2959 67.3486C6.72363 67.3486 7.71973 66.502 7.71973 64.8252V52.8555H9.64551C10.6582 52.8555 11.4219 52.208 11.4219 51.0625C11.4219 49.9336 10.6582 49.2861 9.64551 49.2861H7.60352V48.1572C7.60352 46.8457 8.20117 46.248 9.69531 46.1982C10.0605 46.1816 10.3594 46.1318 10.625 46.0654C11.2725 45.8662 11.6045 45.4678 11.6045 44.7871C11.6045 43.6416 10.5254 42.8281 7.95215 42.8281C4.59863 42.8613 2.87207 44.4219 2.87207 47.9414V49.2861H1.94238C0.929688 49.2861 0.166016 49.9336 0.166016 51.0625C0.166016 52.208 0.929688 52.8555 1.94238 52.8555H2.87207V64.8252C2.87207 66.502 3.85156 67.3486 5.2959 67.3486ZM21.3662 67.3818C26.7451 67.3818 30.1816 63.9453 30.1816 58.085C30.1816 52.3076 26.6953 48.8213 21.3662 48.8213C16.0371 48.8213 12.5508 52.3242 12.5508 58.085C12.5508 63.9287 15.9873 67.3818 21.3662 67.3818ZM21.3662 63.6797C18.9756 63.6797 17.4648 61.6709 17.4648 58.1016C17.4648 54.5654 19.0088 52.5234 21.3662 52.5234C23.7236 52.5234 25.251 54.5654 25.251 58.1016C25.251 61.6709 23.7402 63.6797 21.3662 63.6797ZM40.8564 67.3818C46.2354 67.3818 49.6719 63.9453 49.6719 58.085C49.6719 52.3076 46.1855 48.8213 40.8564 48.8213C35.5273 48.8213 32.041 52.3242 32.041 58.085C32.041 63.9287 35.4775 67.3818 40.8564 67.3818ZM40.8564 63.6797C38.4658 63.6797 36.9551 61.6709 36.9551 58.1016C36.9551 54.5654 38.499 52.5234 40.8564 52.5234C43.2139 52.5234 44.7412 54.5654 44.7412 58.1016C44.7412 61.6709 43.2305 63.6797 40.8564 63.6797ZM58.7861 67.2822C61.5254 67.2822 63.4844 65.8545 64.2646 63.8623H64.3477V64.8916C64.3477 66.5186 65.3936 67.3486 66.7881 67.3486C68.1992 67.3486 69.1953 66.502 69.1953 64.8916V45.2188C69.1953 43.5586 68.1992 42.6787 66.7715 42.6787C65.3604 42.6787 64.3477 43.5586 64.3477 45.2188V52.2578H64.248C63.3848 50.2822 61.3926 48.9209 58.8193 48.9209C54.3535 48.9209 51.5312 52.4238 51.5312 58.0684C51.5312 63.7627 54.3369 67.2822 58.7861 67.2822ZM60.4297 63.3809C57.9893 63.3809 56.4951 61.3721 56.4951 58.1016C56.4951 54.8477 57.9893 52.8057 60.4297 52.8057C62.8369 52.8057 64.3809 54.8643 64.3809 58.1016C64.3809 61.3555 62.8369 63.3809 60.4297 63.3809ZM82.8916 67.3486C84.3193 67.3486 85.3154 66.502 85.3154 64.8252V52.8555H87.2412C88.2539 52.8555 89.0176 52.208 89.0176 51.0625C89.0176 49.9336 88.2539 49.2861 87.2412 49.2861H85.1992V48.1572C85.1992 46.8457 85.7969 46.248 87.291 46.1982C87.6562 46.1816 87.9551 46.1318 88.2207 46.0654C88.8682 45.8662 89.2002 45.4678 89.2002 44.7871C89.2002 43.6416 88.1211 42.8281 85.5479 42.8281C82.1943 42.8613 80.4678 44.4219 80.4678 47.9414V49.2861H79.5381C78.5254 49.2861 77.7617 49.9336 77.7617 51.0625C77.7617 52.208 78.5254 52.8555 79.5381 52.8555H80.4678V64.8252C80.4678 66.502 81.4473 67.3486 82.8916 67.3486ZM98.9619 67.3818C104.341 67.3818 107.777 63.9453 107.777 58.085C107.777 52.3076 104.291 48.8213 98.9619 48.8213C93.6328 48.8213 90.1465 52.3242 90.1465 58.085C90.1465 63.9287 93.583 67.3818 98.9619 67.3818ZM98.9619 63.6797C96.5713 63.6797 95.0605 61.6709 95.0605 58.1016C95.0605 54.5654 96.6045 52.5234 98.9619 52.5234C101.319 52.5234 102.847 54.5654 102.847 58.1016C102.847 61.6709 101.336 63.6797 98.9619 63.6797ZM112.708 67.3486C114.186 67.3486 115.132 66.4355 115.132 64.8252V56.9229C115.132 54.8145 115.912 53.5693 118.12 53.5361C119.066 53.5195 119.764 53.3037 120.229 52.9053C120.693 52.5068 120.926 51.9258 120.926 51.1621C120.926 50.332 120.693 49.7344 120.229 49.3691C119.88 49.0703 119.365 48.9209 118.718 48.9209C116.941 48.9209 115.48 50.2324 115.016 52.4404H114.916V51.2783C114.916 49.7344 113.986 48.8379 112.625 48.8379C111.23 48.8379 110.284 49.7344 110.284 51.2783V64.8252C110.284 66.4355 111.247 67.3486 112.708 67.3486ZM132.431 73.5908C136.332 73.5908 138.391 71.8975 140.051 67.2988L145.513 52.457C145.679 51.9922 145.778 51.4277 145.778 51.0293C145.778 49.751 144.815 48.8379 143.421 48.8379C142.176 48.8379 141.479 49.4189 141.08 50.7637L137.212 63.1152H137.129L133.261 50.7969C132.862 49.3857 132.198 48.8379 130.92 48.8379C129.492 48.8379 128.413 49.7842 128.413 51.0957C128.413 51.4941 128.513 52.0254 128.695 52.5234L134.373 67.498L134.124 68.1289C133.543 69.374 132.63 69.7393 131.783 69.7393C131.451 69.7393 131.269 69.7227 130.937 69.7227C129.841 69.7227 129.16 70.3369 129.16 71.3164C129.16 72.7773 130.306 73.5908 132.431 73.5908ZM155.54 67.3818C160.919 67.3818 164.355 63.9453 164.355 58.085C164.355 52.3076 160.869 48.8213 155.54 48.8213C150.211 48.8213 146.725 52.3242 146.725 58.085C146.725 63.9287 150.161 67.3818 155.54 67.3818ZM155.54 63.6797C153.149 63.6797 151.639 61.6709 151.639 58.1016C151.639 54.5654 153.183 52.5234 155.54 52.5234C157.897 52.5234 159.425 54.5654 159.425 58.1016C159.425 61.6709 157.914 63.6797 155.54 63.6797ZM173.188 67.332C175.877 67.332 177.637 66.0371 178.517 63.7959H178.616V64.8916C178.616 66.502 179.562 67.3486 180.957 67.3486C182.352 67.3486 183.298 66.502 183.298 64.8916V51.3779C183.298 49.7178 182.302 48.8379 180.874 48.8379C179.463 48.8379 178.45 49.7178 178.45 51.3779V59.3965C178.45 61.7539 177.105 63.2979 174.947 63.2979C172.806 63.2979 171.627 62.0361 171.627 59.6621V51.3779C171.627 49.7178 170.631 48.8379 169.203 48.8379C167.792 48.8379 166.779 49.7178 166.779 51.3779V60.6748C166.779 64.8252 169.336 67.332 173.188 67.332Z" fill="black"/>
</svg>
